<?xml version="1.0" standalone="no"?>
<!DOCTYPE svg PUBLIC "-//W3C//DTD SVG 20010904//EN"
 "http://www.w3.org/TR/2001/REC-SVG-20010904/DTD/svg10.dtd">
<svg version="1.0" xmlns="http://www.w3.org/2000/svg"
 width="1006.000000pt" height="662.000000pt" viewBox="0 0 1006.000000 662.000000"
 preserveAspectRatio="xMidYMid meet">

<g transform="translate(0.000000,662.000000) scale(0.100000,-0.100000)"
fill="#000000" stroke="none">
<path d="M6560 2746 c0 -185 2 -216 15 -216 12 0 15 19 15 109 0 100 2 110 24
134 51 55 117 45 135 -20 6 -21 11 -80 11 -130 0 -55 4 -93 10 -93 6 0 10 46
10 119 0 114 -1 121 -26 150 -34 41 -88 43 -133 5 l-30 -25 -3 87 c-2 59 -7
89 -15 92 -10 3 -13 -44 -13 -212z"/>
<path d="M6340 2871 c0 -48 -2 -51 -25 -51 -14 0 -25 -4 -25 -10 0 -5 11 -10
25 -10 l25 0 0 -115 c0 -102 2 -117 20 -135 21 -21 90 -29 90 -10 0 6 -13 10
-28 10 -47 0 -52 14 -52 137 l0 113 41 0 c24 0 38 4 34 10 -3 6 -21 10 -40 10
-33 0 -34 1 -37 47 -4 66 -28 70 -28 4z"/>
<path d="M4060 2860 c0 -47 -2 -50 -25 -50 -14 0 -25 -4 -25 -10 0 -5 11 -10
25 -10 l25 0 0 -115 c0 -102 2 -117 20 -135 21 -21 90 -29 90 -10 0 6 -9 10
-21 10 -11 0 -29 5 -40 10 -17 10 -19 22 -19 125 l0 115 34 0 c19 0 38 5 41
10 4 6 -10 10 -34 10 l-41 0 0 50 c0 38 -4 50 -15 50 -11 0 -15 -12 -15 -50z"/>
<path d="M5190 2824 c-64 -23 -100 -78 -100 -154 0 -120 98 -194 187 -140 44
26 66 74 66 140 0 61 -21 112 -56 135 -27 17 -75 27 -97 19z m94 -54 c68 -81
29 -230 -61 -230 -19 0 -43 5 -54 10 -64 35 -66 202 -2 239 10 6 34 11 55 11
28 0 42 -7 62 -30z"/>
<path d="M5522 2805 l-30 -25 -6 22 c-4 16 -8 20 -16 12 -14 -14 -9 -283 5
-287 6 -1 12 44 15 115 6 136 17 158 82 158 35 0 40 -4 54 -35 9 -22 14 -70
14 -134 0 -56 4 -103 10 -106 6 -4 10 28 10 90 0 135 26 188 92 188 50 0 58
-21 58 -155 0 -98 3 -118 15 -118 12 0 15 19 15 113 0 122 -9 152 -51 176 -32
18 -72 9 -105 -24 l-24 -24 -29 30 c-36 36 -70 37 -109 4z"/>
<path d="M6034 2820 c-89 -36 -109 -196 -34 -272 25 -24 36 -28 85 -28 50 0
60 4 88 32 40 39 20 51 -24 14 -53 -45 -121 -30 -154 34 -27 51 -21 60 39 60
29 0 81 3 115 6 70 8 75 18 42 91 -29 62 -95 89 -157 63z m80 -20 c27 -10 66
-64 66 -91 0 -13 -16 -17 -92 -22 -51 -3 -97 -2 -102 3 -16 15 15 81 48 101
36 22 45 23 80 9z"/>
<path d="M1265 2798 c-25 -19 -27 -26 -23 -75 4 -44 11 -61 44 -99 22 -26 57
-62 80 -80 l40 -33 54 46 c105 93 139 185 85 238 -34 35 -80 33 -113 -4 l-27
-28 -26 28 c-33 35 -75 38 -114 7z"/>
<path d="M3723 2800 c-18 -11 -33 -24 -33 -30 0 -13 -1 -13 45 10 22 11 52 20
68 20 34 0 77 -40 77 -73 0 -21 -7 -25 -81 -41 -94 -20 -129 -46 -129 -96 0
-49 38 -80 99 -80 39 0 56 6 80 26 30 25 31 25 31 5 0 -12 6 -21 15 -21 12 0
15 19 15 110 0 63 -5 120 -12 135 -25 54 -115 72 -175 35z m157 -162 c-1 -64
-44 -108 -107 -108 -41 0 -73 26 -73 59 0 39 31 63 98 77 84 18 82 19 82 -28z"/>
<path d="M4319 2805 c-37 -20 -59 -73 -59 -143 0 -93 50 -152 128 -152 40 0
88 23 102 50 15 27 -10 27 -35 0 -25 -28 -76 -35 -113 -16 -30 15 -68 88 -57
107 4 5 55 9 116 9 l109 0 0 25 c0 39 -25 89 -55 113 -32 26 -96 29 -136 7z
m112 -15 c22 -12 49 -61 49 -90 0 -19 -6 -20 -101 -20 -88 0 -100 2 -95 16 3
9 6 22 6 31 0 8 13 28 29 44 31 31 75 38 112 19z"/>
<path d="M4817 2809 c-52 -30 -40 -106 21 -132 20 -9 58 -25 85 -36 41 -17 47
-24 47 -50 0 -56 -92 -76 -150 -32 -34 24 -52 22 -30 -4 44 -53 146 -59 187
-10 28 32 29 66 5 89 -11 9 -47 27 -82 41 -76 30 -90 41 -90 71 0 51 87 72
142 33 39 -28 51 -14 15 17 -22 19 -39 24 -80 24 -29 0 -60 -5 -70 -11z"/>
<path d="M3545 2720 l7 -40 -46 0 c-24 0 -48 -4 -51 -10 -4 -6 18 -10 59 -10
73 0 77 5 55 69 -16 45 -32 39 -24 -9z"/>
<path d="M6930 2612 c0 -63 3 -83 13 -80 19 7 21 118 3 143 -14 18 -15 13 -16
-63z"/>
<path d="M3357 2574 c-23 -23 43 -64 104 -64 41 0 109 38 109 61 0 16 -21 10
-52 -16 -39 -33 -87 -33 -126 0 -16 13 -32 22 -35 19z"/>
</g>
</svg>
