<?xml version="1.0" standalone="no"?>
<!DOCTYPE svg PUBLIC "-//W3C//DTD SVG 20010904//EN"
 "http://www.w3.org/TR/2001/REC-SVG-20010904/DTD/svg10.dtd">
<svg version="1.0" xmlns="http://www.w3.org/2000/svg"
 width="1080.000000pt" height="1080.000000pt" viewBox="0 0 1080.000000 1080.000000"
 preserveAspectRatio="xMidYMid meet">
<metadata>
Created by potrace 1.16, written by Peter Selinger 2001-2019
</metadata>
<g transform="translate(0.000000,1080.000000) scale(0.100000,-0.100000)"
fill="#000000" stroke="none">
<path d="M3425 7630 c-165 -169 -301 -314 -303 -320 -3 -7 346 -363 774 -791
429 -429 779 -783 779 -788 0 -13 -1472 -1524 -2247 -2305 -218 -221 -395
-402 -393 -404 4 -4 3750 13 5548 24 654 5 1017 10 1017 17 0 5 -344 352 -763
771 -420 418 -1020 1019 -1332 1333 l-568 572 359 366 c197 201 377 386 398
411 l39 46 -309 309 c-170 170 -314 309 -320 309 -6 0 -185 -180 -398 -400
-214 -220 -394 -400 -400 -400 -7 0 -360 351 -785 780 -425 429 -778 780 -784
780 -7 -1 -147 -140 -312 -310z m2495 -3142 l597 -603 -591 -7 c-325 -4 -865
-7 -1201 -5 l-610 2 435 445 c633 649 753 770 763 770 6 0 278 -271 607 -602z"/>
</g>
</svg>
